<svg width="62" height="56" viewBox="0 0 62 56" fill="none" xmlns="http://www.w3.org/2000/svg">
<path d="M29.4736 41.7705C28.8755 41.8845 28.3829 42.7332 28.0996 43.18C27.3822 44.3116 26.7104 45.6959 26.4877 47.0322C26.4559 47.2229 26.4426 47.4749 26.5978 47.6215C26.8287 47.8396 26.7621 46.8361 26.7611 46.8262C26.669 45.9011 26.3942 45.0218 26.1611 44.128C26.1172 43.96 25.9978 43.8948 25.8202 43.883C25.1309 43.837 24.7014 44.2456 24.148 44.554C23.8495 44.7204 23.2988 44.6856 22.9622 44.7067C22.6161 44.7283 22.4441 44.6889 22.2876 44.4404C22.0338 44.0373 21.696 43.6605 21.3539 43.3398C21.2079 43.2029 20.7274 43.1784 20.9527 43.4037C21.6761 44.127 22.5599 44.7551 23.4522 45.257C23.6653 45.3769 23.8789 45.4132 24.0415 45.612C24.1545 45.7501 24.2381 45.8978 24.3966 45.9884C24.6336 46.1238 24.8488 46.4067 25.0356 46.599C25.1867 46.7545 25.1744 46.7224 25.3978 46.7836C25.8799 46.9158 26.3267 47.1335 26.7895 47.3162C27.2681 47.5051 27.7302 47.713 28.1351 48.0369C28.4095 48.2564 28.6496 48.5168 28.9339 48.7221C29.1724 48.8944 29.5183 49.0765 29.6972 49.315C29.7802 49.4256 29.8891 49.5104 30.0168 49.5671C30.1594 49.6305 30.2046 49.821 30.3363 49.8795C30.4947 49.9499 30.6485 49.9938 30.8156 50.0642C30.8925 50.0966 31.0103 50.0846 31.0748 50.0322C31.337 49.8191 31.4931 49.2 31.6038 48.9281C31.9935 47.9704 32.3502 46.9999 32.7292 46.0381C33.1552 44.9571 33.6546 43.8955 33.9825 42.7788C34.2171 41.9799 33.7233 42.9114 33.6062 43.1339C32.9484 44.3831 32.3338 45.6669 31.6357 46.8937C31.6052 46.9474 31.5043 47.1008 31.5257 47.0428C31.5892 46.8705 31.6889 46.7136 31.7635 46.5458C32.3413 45.2459 32.7872 43.8912 33.2511 42.5481C33.7023 41.2419 34.1457 39.931 34.8133 38.7172C35.0867 38.2201 34.0267 39.5418 33.7056 40.0096C32.7025 41.4707 31.7702 42.9787 30.6878 44.3836C30.4076 44.7473 30.43 44.7513 30.7588 44.483C30.7986 44.4505 31.3335 44.0645 31.0925 44.3055C30.5231 44.8749 29.9673 45.4223 29.4594 46.0523C28.8104 46.8572 29.4547 46.0289 29.4736 46.1801C29.5248 46.5903 29.8577 46.6177 30.2404 46.8227C30.4004 46.9084 30.5584 47.037 30.7233 47.1103C30.9678 47.2189 31.2751 46.7618 31.3979 46.6345C32.035 45.9736 32.6446 45.3636 33.3932 44.8309C34.1689 44.279 35.256 43.601 35.6015 42.651C35.682 42.4297 35.6147 43.1224 35.6015 43.3575C35.57 43.9165 35.4354 44.4383 35.2287 44.9552C34.8612 45.874 34.7888 46.9927 34.0429 47.7387C33.8736 47.9079 33.7055 48.1821 33.4997 48.3032C33.134 48.5183 33.6448 48.1922 33.7695 48.0689C35.1096 46.7437 36.1163 45.1672 37.1565 43.6096C37.8535 42.566 38.6522 41.4821 39.1589 40.3291C39.5678 39.3987 39.833 38.3982 39.9933 37.3965C40.0998 36.7306 40.2407 35.9509 40.153 35.2734C40.0351 34.3625 38.9226 34.6225 38.3494 34.8899C36.426 35.7875 36.2662 38.6538 36.2689 40.4569C36.2699 41.0763 36.3389 45.1133 37.721 44.6641C38.8243 44.3055 39.3845 42.5117 39.5779 41.5078C39.6266 41.2551 39.6882 40.8707 39.5708 40.6202C39.394 40.2432 38.5491 40.6877 38.3636 40.7764C36.9485 41.4535 36.0224 42.6786 34.863 43.6806C34.3743 44.1029 33.8268 44.5028 33.6204 45.1221C33.4539 45.6214 33.3725 46.1277 33.244 46.6345C33.1865 46.8615 33.1196 46.9542 33.1162 47.2026C33.1091 47.7264 33.0523 48.2471 33.0523 48.7718C33.0523 48.8914 32.887 49.1967 32.9813 49.1233C33.5307 48.696 34.0679 48.2185 34.5967 47.7635C34.8301 47.5627 35.0716 47.4096 35.3032 47.2381C35.4453 47.1329 35.4956 46.9037 35.6441 46.8227C35.7594 46.7598 35.8342 46.7452 35.9317 46.6558C36.1539 46.4521 36.3072 46.2069 36.5388 46.0026C36.7513 45.815 37.1455 45.4565 36.6595 45.8605C36.2123 46.2323 35.8348 46.6801 35.5092 47.16C35.1455 47.6959 34.7897 48.2433 34.302 48.6724C34.0246 48.9166 33.7031 49.2867 33.3576 49.4393C33.2195 49.5004 33.14 49.6346 33.0204 49.6878C32.9768 49.7072 32.8449 49.7517 32.8926 49.7517C32.927 49.7517 33.0381 49.5824 33.0452 49.5742C33.383 49.1899 33.7459 48.8284 34.0926 48.4523C35.1396 47.3165 35.84 45.9394 36.8547 44.7883C37.7542 43.768 38.911 43.004 39.6027 41.8025C39.9595 41.1828 40.1539 40.5385 40.3518 39.8533C40.4564 39.4914 40.5781 39.1724 40.7175 38.8237C40.9694 38.1941 40.9462 37.5195 41.0122 36.8533C41.1184 35.7817 41.3932 34.5142 41.0406 33.4627C40.7295 32.5347 39.2805 32.8331 38.598 33.0154C36.8987 33.4691 35.6833 34.3257 34.721 35.7988C34.2784 36.4764 33.9384 37.2706 33.6381 38.0214C33.3771 38.674 34.4039 36.841 34.7423 36.2249C35.6146 34.6366 36.4701 33.0402 37.2914 31.4248C37.5856 30.8463 37.9864 30.2052 38.1364 29.5573C38.3207 28.7618 36.323 30.2737 36.2334 30.3526C34.0798 32.2507 32.4111 34.815 31.2203 37.4107C31.0374 37.8096 30.5078 39.0011 30.7659 38.6462C30.963 38.3752 31.2204 38.1607 31.4476 37.9149C32.416 36.8664 33.2875 35.7076 34.0571 34.5065C34.5812 33.6885 35.0304 32.8312 35.4382 31.9503C35.4985 31.8199 35.909 31.1212 35.8216 30.8993C35.8001 30.8449 35.6976 30.9063 35.6512 30.942C35.4899 31.0659 35.2182 31.3553 35.1115 31.4887C33.9706 32.9161 33.1003 34.6109 32.2925 36.2391C31.1727 38.4963 30.2374 40.9184 29.7079 43.3895C29.6894 43.4757 29.5494 43.9411 29.7753 43.6345C30.3709 42.8261 30.8321 41.8705 31.2629 40.9717C32.2317 38.9506 33.1108 36.8624 33.8156 34.7337C33.9421 34.3517 34.3849 33.3044 34.1991 32.8343C34.0805 32.5343 33.491 32.7189 33.3115 32.7917C32.409 33.1574 31.6046 33.8599 30.9967 34.6059C29.9092 35.9402 29.1687 37.5564 28.4156 39.0936C28.4062 39.1127 28.1255 39.5873 28.2522 39.619C28.49 39.6785 28.9211 39.2207 29.0404 39.1078C30.6596 37.5746 31.2368 35.5519 31.7529 33.4379C32.1024 32.0061 32.5762 30.3706 32.2464 28.8863C32.1484 28.4452 31.9364 27.8665 31.4192 27.7963C30.4364 27.6631 29.5463 28.517 28.9836 29.2023C28.2954 30.0403 27.3676 31.8708 28.5079 32.7384C29.0959 33.1859 29.9927 33.222 30.6949 33.1858C31.7445 33.1317 32.7446 32.7793 33.6346 32.2272C34.7753 31.5196 35.945 30.5363 36.3754 29.2449" stroke="white" stroke-width="3" stroke-linecap="round"/>
<path d="M6.97873 13.9714C6.97873 16.9887 7.18699 20.0206 7.6817 22.9964C7.88995 24.249 8.09281 25.5299 8.42018 26.7597C8.56945 27.3205 8.91487 26.494 9.02374 26.284C9.75191 24.8797 10.2334 23.3053 10.696 21.7999C11.151 20.3189 11.5512 18.8202 11.9208 17.3158C12.0816 16.6616 12.2599 15.9868 12.3327 15.3134C12.3508 15.1452 12.3911 14.8112 12.3043 15.1856C11.9361 16.7724 11.6043 18.3665 11.2534 19.9573C11.0082 21.0685 10.7535 22.1767 10.5397 23.2946C10.4368 23.8331 10.8534 23.2973 10.98 23.1242C12.4305 21.1403 13.2162 18.4909 13.6108 16.0874C13.9253 14.1719 13.1045 19.9369 12.9007 21.8674C12.894 21.931 12.6578 23.2778 12.7729 23.323C13.0442 23.4296 13.7492 21.9449 13.8238 21.7963C14.1366 21.1733 14.421 20.5107 14.6262 19.8437C14.6438 19.7864 14.6967 19.615 14.683 19.6732C14.6378 19.8653 14.5412 20.0824 14.4842 20.2626C14.0664 21.5824 13.69 22.9132 13.4333 24.2745C13.3346 24.7979 13.2322 25.3288 13.167 25.858C13.1603 25.9121 13.1133 25.9878 13.1563 26.0213C13.1921 26.0491 13.2106 25.9482 13.2309 25.9077C13.296 25.7774 13.3545 25.6438 13.412 25.51C14.7751 22.3362 15.9739 18.7113 15.5457 15.2211C15.4304 14.2808 15.2377 13.1791 14.3351 12.6648C13.7513 12.3322 12.9015 12.6131 12.496 13.1051C12.1135 13.5692 11.8064 14.2078 11.9244 14.8199C12.0436 15.4382 12.4449 15.6276 12.9966 15.3454C14.6719 14.4882 14.5922 12.2317 13.9587 10.7405C13.0426 8.584 11.06 10.6016 10.2664 11.7701C10.0296 12.1188 9.59198 12.8614 9.76931 13.3252C9.89995 13.6669 10.6235 13.3288 10.7776 13.24C12.0966 12.4806 13.3471 10.6747 12.5315 9.12513C12.3616 8.80243 11.8779 8.7122 11.5445 8.72394C10.9111 8.74625 10.4701 9.34806 10.2806 9.89556C9.14772 13.1682 15.8402 9.85569 13.554 8.50382C13.1533 8.26691 12.6761 8.27092 12.2333 8.35471C12.2183 8.35753 11.3613 8.60856 11.5835 8.75235C11.8904 8.95087 12.7023 8.64247 13.0001 8.55353C13.5763 8.38149 14.1946 8.08778 14.5055 7.54523C14.7979 7.03485 14.4597 6.76373 13.909 6.88841C13.6222 6.95334 13.2858 7.06984 13.0569 7.2612C12.9434 7.35615 12.8466 7.5235 13.0569 7.51682C13.3469 7.50762 14.3493 7.33031 14.4522 6.97007C14.5285 6.70303 12.5987 6.63041 12.4463 6.63633C12.3081 6.64171 11.1801 6.77242 11.6581 7.07658C12.2778 7.47092 13.6158 7.82521 14.2996 7.43871C14.5295 7.30877 14.542 7.26067 14.6368 7.54523C15.0127 8.67269 15.5455 9.69148 16.2487 10.6518C16.7063 11.2767 17.2358 12.0707 18.07 12.1891C18.3753 12.2324 18.7696 12.1583 18.9363 11.8625C19.0591 11.6446 18.8 11.3495 18.6452 11.2269C18.1109 10.804 17.3113 10.778 16.6996 11.0246C15.9251 11.3368 13.5277 13.4734 15.4641 13.7512C16.4254 13.8892 18.4182 13.7702 18.4641 12.4376C18.4993 11.4174 17.2461 10.8241 16.3659 11.0388C16.1457 11.0925 15.5724 11.2279 15.4641 11.4755C15.3712 11.6877 16.3994 11.5945 16.4262 11.5926C17.3222 11.5314 18.085 11.1348 18.8227 10.6411C19.2284 10.3697 20.3046 9.65141 20.1079 9.02217C19.9661 8.56838 19.3821 8.19318 18.9363 8.12748C18.0018 7.98977 17.0086 8.56994 16.3233 9.13933C15.9712 9.4318 15.1412 10.1029 15.2014 10.6624C15.2667 11.27 16.1876 11.5138 16.6641 11.4719C17.1786 11.4267 18.4146 11.2443 18.6239 10.6624C18.8328 10.0815 18.5768 9.28036 18.3896 8.73104C18.2674 8.37246 18.1629 8.13038 17.7718 8.14524C17.1232 8.16987 15.2345 8.78333 15.5351 9.78905C15.6626 10.2158 16.4932 10.1942 16.8203 10.176C17.3076 10.149 18.0279 9.98512 18.3683 9.59023C18.5839 9.34011 18.3546 9.0273 18.205 8.80915C17.6014 7.92926 16.803 7.46902 15.7552 7.2683C15.08 7.13896 14.4731 7.20485 13.909 7.60913C13.575 7.84853 13.4426 8.24384 13.7244 8.59613C14.1146 9.08392 14.9918 9.15197 15.5564 9.21389C16.5348 9.3212 17.7281 9.34907 18.6381 8.90856C19.2496 8.61257 19.1879 8.18528 18.5529 8.03872C17.9296 7.89489 18.6519 8.61022 18.8014 8.69554C19.371 9.02046 20.7675 9.65557 21.4109 9.14999C21.5804 9.01683 21.8156 9.05691 22.018 9.07898C22.7932 9.16345 23.5797 9.33866 24.3258 9.56183C24.8225 9.71044 25.2903 9.92343 25.7495 10.1618C25.9182 10.2495 26.1151 10.4181 26.3069 10.453C26.9163 10.5638 27.5004 10.8322 28.1246 10.9394C28.2736 10.9649 29.3511 10.909 29.14 10.6979C28.799 10.3569 28.5811 10.0718 28.2667 9.68254C27.9035 9.23294 27.4739 8.77617 27.0453 8.34761C26.9166 8.2189 26.8766 8.09198 26.6939 8.09198C26.5688 8.09198 26.4601 7.9641 26.3637 7.90026C26.0724 7.70732 25.763 7.50914 25.4335 7.38901C24.6133 7.08999 23.4444 7.29349 22.6251 7.43516C22.1535 7.51673 20.3781 7.85203 20.2713 8.51092C20.1982 8.9617 21.1247 8.35848 21.1695 8.32985C21.6237 8.03995 23.0082 6.64625 21.947 6.23869C20.4525 5.66471 18.9116 6.70578 18.4109 8.11683C18.2194 8.65658 18.1082 9.45022 18.4038 9.97367C18.7452 10.5783 19.4528 10.8162 20.1079 10.8364C20.4111 10.8457 20.7176 10.844 21.0168 10.7902C21.0815 10.7787 21.0325 10.9198 21.0381 10.982C21.0626 11.2507 21.3816 11.4546 21.5636 11.6139C22.2688 12.231 23.1154 12.3819 24.0311 12.4554C24.8189 12.5186 25.5763 12.4842 26.3495 12.324C26.6314 12.2656 26.9432 12.1585 27.2371 12.182C27.5324 12.2056 27.8427 12.4025 28.1069 12.5122C29.2891 13.0029 30.5693 13.2879 31.8454 13.3749C32.684 13.4321 33.4865 13.346 34.2739 13.0412C34.6828 12.8829 34.9765 12.5999 35.3532 12.4021C35.6968 12.2217 35.7835 11.8494 35.8893 11.4506C36.0499 10.8452 35.9655 10.6167 35.3674 10.2932C34.4858 9.81644 33.3791 10.006 32.5342 10.4707C32.1279 10.6942 31.7671 10.9721 31.4052 11.2589C31.3908 11.2703 31.1138 11.5094 31.1495 11.5145C31.2089 11.523 31.4399 11.2384 31.4549 11.2234C31.9971 10.6812 32.5673 10.1677 33.1093 9.62573C33.5241 9.21101 33.146 9.58972 32.9886 9.78195C30.9833 12.2317 28.9524 14.6631 26.8678 17.046C25.8725 18.1837 24.8254 19.2717 23.8181 20.3975C23.7612 20.461 23.6187 20.6472 23.7009 20.6247C23.8937 20.5722 24.2794 20.1407 24.3684 20.0638C25.6038 18.9953 26.9109 18.012 28.1246 16.9182C28.4145 16.657 29.2272 15.8168 28.927 16.0661C27.8047 16.9981 26.7831 18.1265 25.7708 19.1691C23.988 21.0051 22.3525 22.9809 20.5233 24.7715C19.6615 25.6152 21.2822 24.332 21.3009 24.3171C24.7296 21.5741 27.7156 18.2802 30.7803 15.1501C31.3582 14.5598 33.2046 12.9084 32.5626 13.4282C31.9838 13.8967 31.4566 14.4509 30.9365 14.9797C29.6002 16.3383 28.2955 17.7288 26.985 19.1123C25.4713 20.7103 23.9728 22.3186 22.5009 23.955C22.4252 24.0391 22.347 24.1209 22.2737 24.207C22.2522 24.2323 22.19 24.3082 22.2169 24.2887C22.2948 24.232 22.3621 24.1619 22.4299 24.0934C23.2369 23.2785 23.9708 22.3916 24.7305 21.5336C25.782 20.3461 26.989 19.2457 27.9791 18.0081C28.1681 17.7718 27.8799 17.8194 27.7128 17.8555C27.0673 17.9949 26.4496 18.3008 25.8631 18.5904C24.2946 19.3647 22.7409 20.2239 21.3364 21.2709C20.8259 21.6514 19.3428 22.8509 19.8736 22.4993C20.7559 21.9149 21.5444 21.1412 22.3269 20.4366C22.8893 19.9301 23.4466 19.4172 23.9849 18.8851C24.1431 18.7287 24.3628 18.5475 24.482 18.3525C24.6416 18.0914 23.9358 18.6296 23.6725 18.7856C22.6319 19.4025 21.5996 20.0534 20.6121 20.7525C20.1054 21.1113 20.4719 20.9152 20.7967 20.6815C22.2743 19.6187 23.5103 18.3181 24.8086 17.0531C25.1633 16.7075 25.3023 16.5805 25.6571 16.2862C25.7446 16.2136 25.8371 16.1471 25.9234 16.0732C26.0536 15.9618 26.0167 15.9622 25.8453 16.0519C24.2123 16.9063 22.79 18.1737 21.3364 19.2898C21.1675 19.4195 20.453 19.9636 20.2216 20.149C20.1588 20.1993 19.8152 20.4332 19.792 20.5608C19.7687 20.6889 20.0335 20.4602 20.1434 20.3904C20.6246 20.0848 21.1027 19.7733 21.5813 19.4638C22.2276 19.0458 22.9184 18.6306 23.4737 18.0898C23.9903 17.5866 22.9839 18.3207 22.9411 18.3525C21.5986 19.3515 17.6326 22.4281 18.9292 21.3703C19.8563 20.614 20.7429 19.8301 21.5849 18.9774C21.7392 18.8211 24.596 15.9756 24.4039 15.7891C24.3082 15.6963 24.1366 15.8374 24.0204 15.9028C23.0576 16.4441 22.146 17.1559 21.2405 17.7773C20.1238 18.5437 19.0144 19.3259 17.8783 20.0638C17.7296 20.1603 17.3025 20.448 17.4026 20.3017C17.481 20.187 17.5932 20.0994 17.6902 19.9999C18.234 19.4419 18.772 18.8782 19.3198 18.3241C20.0824 17.5527 20.8591 16.7982 21.6594 16.0661C22.0034 15.7514 22.392 15.4486 22.7068 15.1004C24.1372 13.5183 19.382 17.7729 17.7079 19.0945C17.3592 19.3698 17.2756 19.3941 17.6369 19.02C18.6126 18.0097 19.6703 17.0791 20.7541 16.1868C21.0688 15.9277 21.6263 15.5653 20.8642 15.8815C20.0698 16.211 19.3156 16.623 18.5351 16.9821C18.3586 17.0633 18.301 17.0995 18.4393 16.8898C18.9151 16.1681 19.6233 15.5812 20.2287 14.9726C20.2556 14.9455 20.9971 14.2016 20.8997 14.1737C20.6834 14.112 20.3043 14.1778 20.1008 14.1915C19.5877 14.2261 19.074 14.2734 18.5671 14.3619C18.394 14.3921 16.9424 14.8452 17.289 14.3903C17.8667 13.632 18.7264 12.9657 19.5186 12.4376C20.2179 11.9714 21.1428 12.0498 21.9435 11.8944C22.1745 11.8496 22.3578 11.7642 22.5719 11.6849C22.8771 11.5719 23.3737 11.7035 23.6867 11.7204C24.3504 11.7563 25.0032 11.6864 25.5897 11.3512C25.6152 11.3366 25.5482 11.3081 25.5222 11.2944C25.1958 11.1221 24.8621 10.9614 24.5317 10.7974C23.8182 10.4431 22.9491 9.85103 22.1316 9.78195C21.8543 9.75851 21.938 10.1529 21.8831 10.3323C21.6226 11.1834 21.1449 12.0146 20.7186 12.7855C19.3085 15.3358 17.5033 17.6228 16.025 20.1277C15.7471 20.5986 15.3544 21.1337 15.1694 21.6579C15.0977 21.861 15.3226 21.5445 15.3363 21.5301C16.6108 20.1827 17.4032 18.3734 17.9067 16.6057C18.0672 16.0423 18.2509 15.4481 18.2866 14.859C18.3002 14.6356 18.2158 14.6649 18.0452 14.8022C17.6686 15.1053 17.3544 15.5425 17.1043 15.9525C16.7077 16.6028 16.9739 16.7673 17.6937 16.7548C19.7134 16.7198 21.7105 16.2 23.6761 15.7891C24.8638 15.5409 26.1233 15.2181 27.3507 15.285C27.8106 15.3101 27.8051 15.8539 27.8903 16.2365C28.0655 17.0229 28.2045 17.8329 28.6181 18.5371C28.9089 19.0321 29.6184 19.6967 30.2407 19.4034C30.4489 19.3052 30.9472 18.8247 30.7413 18.9277C30.2368 19.1799 29.3929 18.8633 28.8844 18.7785C28.6066 18.7323 28.2318 19.4592 28.1459 19.588C27.1524 21.0784 26.2992 22.6686 25.1459 24.0473C24.4962 24.8239 23.9749 25.3672 23.2429 26.0745C22.9012 26.4047 22.1138 27.2999 21.5494 27.4556C21.366 27.5062 21.0519 27.2162 20.9565 27.1325C20.5085 26.74 20.1006 26.294 19.6961 25.858C19.0383 25.1489 18.5293 24.3149 17.8464 23.6319C17.7414 23.5269 17.7789 23.7598 17.7789 23.8059C17.7789 24.3685 17.7637 24.9338 17.7931 25.4958C17.7975 25.5794 17.9349 26.0824 17.8641 26.1633C17.7651 26.2765 16.8547 25.5783 16.7635 25.5278C16.2086 25.2202 15.5614 25.071 14.9954 25.4106C14.4421 25.7426 13.8836 26.3725 13.5398 26.9089C13.0254 27.7112 12.1653 27.7239 11.335 27.4201C10.9353 27.2739 10.5133 27.1963 10.103 27.0864C9.78786 27.002 9.52405 26.8232 9.22966 26.6887C8.98079 26.5751 8.7278 26.4765 8.51604 26.2982C8.29472 26.1118 8.13264 25.8266 7.86632 25.7017C7.65401 25.6022 6.95824 25.3358 6.73731 25.4887C6.61193 25.5755 6.14795 25.7093 6.14795 25.858C6.14795 26.0481 6.39149 26.2222 6.50298 26.3444C6.63405 26.4879 6.76659 26.6264 6.90062 26.7668C6.97831 26.8482 6.99268 26.9938 7.05684 27.058C7.40376 27.4049 7.71957 27.7997 8.01544 28.2083C8.27157 28.562 8.392 28.9396 8.6119 29.3018C8.86493 29.7186 9.18104 30.0965 9.53499 30.4308C9.83757 30.7166 10.2473 30.9063 10.5504 31.1977C10.9505 31.5824 11.2974 32.028 11.6936 32.419C12.4476 33.1631 13.5108 33.4892 14.2925 34.2297C14.5866 34.5084 14.8595 34.6868 15.1019 35.0285C15.3385 35.3619 15.6535 35.714 15.9256 36.0191C16.189 36.3143 15.825 36.6574 15.6736 36.9351C15.612 37.0479 15.2621 36.9153 15.173 36.9138C14.59 36.9039 14.6583 36.7213 14.3138 36.2747C13.9019 35.7408 13.2396 35.4678 12.8368 34.9327C12.3959 34.3469 11.9137 33.828 11.5409 33.2001C11.1029 32.4624 10.9243 31.5716 10.8415 30.7219C10.596 28.2018 10.931 25.6765 11.6403 23.2555C11.8592 22.5084 12.1576 21.7971 12.5315 21.1147C12.5362 21.1062 12.8613 20.6088 12.8581 20.6815C12.8429 21.0318 12.6609 21.4476 12.5847 21.7857C12.2443 23.2964 11.929 24.8428 11.4238 26.3089C11.2684 26.7597 11.075 27.2639 10.8131 27.6686C10.7556 27.7575 10.7492 27.6085 10.7492 27.7396C10.7492 28.4067 10.701 29.0303 10.5255 29.6781C10.3881 30.1856 10.1358 30.6433 9.99653 31.148C9.92716 31.3995 9.84945 31.6794 9.75511 31.922C9.75028 31.9344 9.63984 32.0942 9.677 32.1066C9.84321 32.162 10.5803 31.375 10.664 31.29C11.2808 30.6631 11.776 29.9251 12.3575 29.2663C13.6906 27.7562 15.0194 26.2692 16.1813 24.6189C17.0651 23.3634 17.8527 22.041 18.6168 20.7099C18.621 20.7027 19.4632 19.2112 19.0641 19.5525C18.4458 20.0814 18.0115 20.9295 17.5765 21.6011C16.871 22.6903 16.2239 23.8187 15.4783 24.8816C15.2947 25.1433 15.1712 25.2509 15.3576 24.8781C16.1866 23.22 17.0225 21.5631 17.857 19.9076C18.0246 19.5751 18.1247 19.3876 18.3115 19.091C18.3743 18.9912 18.5942 18.8546 18.4961 18.7892C18.3737 18.7076 16.7248 22.2239 16.6463 22.4141C16.3854 23.047 16.1919 23.5785 15.9824 24.2177C15.7909 24.8022 15.7699 24.9832 16.4227 24.6295C17.6531 23.9628 18.8234 23.1479 19.9801 22.3644C20.6028 21.9427 21.5442 21.0489 22.3163 20.8236C22.4513 20.7841 22.4122 21.1097 22.366 21.2425C21.9538 22.428 21.405 23.6042 20.9103 24.7538C19.5057 28.0178 17.863 31.1804 15.9718 34.1906C15.7267 34.5807 15.2049 35.2374 15.7268 34.4072C16.5855 33.0414 17.5176 31.724 18.3683 30.3527C18.535 30.0839 18.9636 29.3803 19.1422 29.0817C19.1903 29.0013 19.4956 28.5929 19.4795 28.432C19.445 28.0862 18.2222 28.8678 18.205 28.8793C17.318 29.4685 16.4578 30.1045 15.6061 30.7432C15.3848 30.9092 15.0152 31.2269 15.2866 30.7219C15.7858 29.7932 16.3803 28.9077 16.9481 28.0201C17.1586 27.6912 17.3845 27.3679 17.5801 27.0296C17.6163 26.9669 17.6875 26.7842 17.6227 26.8166C16.5626 27.3466 14.4642 30.3025 15.0522 29.2734C15.3218 28.8017 15.7615 28.4437 16.1742 28.1053C16.3882 27.9298 16.9615 27.3452 16.8203 27.5834C16.5833 27.9835 16.1442 28.4137 15.8582 28.7621C15.5816 29.0991 15.2917 29.4594 14.9848 29.774C14.896 29.865 14.7464 30.1034 14.6759 29.9977C14.6456 29.9521 14.7467 29.9141 14.7789 29.8699C14.8484 29.7742 14.898 29.6681 14.9386 29.5574C14.9497 29.5272 14.9348 29.4651 14.967 29.4651C15.0615 29.4651 14.9273 29.6507 14.8925 29.7385C14.71 30.1978 14.4754 30.638 14.2499 31.077C14.1735 31.2256 13.8985 31.6027 13.8806 31.8048C13.868 31.9474 14.0203 32.1354 14.0723 32.2166C14.5573 32.9732 15.0882 33.7139 15.6416 34.4214C16.2133 35.1523 16.8207 35.8103 17.5801 36.3493C18.0324 36.6702 18.6416 37.0851 19.2346 37.07C20.3667 37.0412 20.7424 35.4159 20.8961 34.5847C21.1307 33.3164 21.1338 32.0175 21.0239 30.7361C20.9882 30.3192 20.9679 29.3647 20.6192 29.0036C19.9703 28.3315 19.3034 29.7502 19.2275 30.1539C18.9196 31.7898 19.2803 34.9751 21.5707 34.8546C24.3732 34.7071 25.8397 31.6162 26.953 29.5006C27.7963 27.8982 28.8345 26.0318 29.0761 24.1893C29.1775 23.4164 29.0049 22.5617 28.3945 22.0378C27.141 20.9619 25.4653 23.1055 24.9009 23.9621C23.8593 25.5432 23.2272 27.4094 23.1115 29.2982C23.0276 30.6696 23.2233 32.3392 24.1056 33.4699C25.2666 34.9575 26.9463 33.7769 27.5495 32.4794C28.1942 31.0926 28.4694 29.4421 28.5933 27.9314C28.7014 26.6135 28.593 25.3277 28.2028 24.065C27.8597 22.955 27.2852 21.7618 25.9092 22.1017C23.7531 22.6342 22.8644 24.8457 23.353 26.8805C23.728 28.4424 25.1141 30.2757 26.9353 29.6497C27.9858 29.2886 28.4916 28.2542 28.785 27.2568C29.1406 26.048 29.4009 24.4882 29.0371 23.2449C28.659 21.9525 27.5053 22.5687 27.0169 23.3656C25.9522 25.1027 25.7368 27.4113 26.7116 29.2379C27.4025 30.5324 28.5768 29.4327 29.1613 28.645C29.8672 27.6939 30.4951 26.279 29.7649 25.1585C28.2536 22.8394 26.6655 28.3281 26.4631 29.1172C26.4315 29.2401 26.0171 30.5215 26.5341 29.8273C27.0142 29.1826 27.398 28.4441 27.7057 27.7041C27.9867 27.0285 28.3181 26.185 28.288 25.4319C28.2462 24.388 26.7358 25.8438 26.5341 26.0426C24.9856 27.5686 23.6455 29.7119 23.4524 31.922C23.3943 32.5861 23.4903 34.385 24.6275 33.9599C25.9545 33.4638 25.3156 31.0014 24.9222 30.1113C24.4295 28.9962 23.4906 27.716 22.1103 27.9243C20.9778 28.0951 19.827 28.7687 19.3233 29.8273C18.9922 30.5231 19.0817 31.3732 19.2346 32.0995C19.3698 32.7418 19.7389 33.1184 20.4097 33.1681C20.9661 33.2093 21.9836 32.8448 21.9115 32.1243C21.8537 31.5458 21.0437 31.3264 20.5695 31.3326C19.2364 31.3501 18.2145 32.9734 17.857 34.0806C17.5086 35.1596 17.4289 36.595 18.3931 37.386C19.4774 38.2754 21.0574 37.5496 21.7837 36.5445C22.3785 35.7214 22.3542 34.6349 22.0535 33.7042C21.932 33.3279 21.7337 32.8994 21.3825 32.6817C20.7912 32.3153 20.7808 33.3939 20.7825 33.6758C20.7921 35.2218 21.2485 38.6678 23.566 37.9895C25.0816 37.5459 26.5393 36.3274 27.6418 35.2522C29.068 33.8612 30.0936 32.1786 30.9081 30.374C31.8723 28.238 32.5141 26.025 32.8537 23.7064C33.0273 22.5218 33.1928 21.1218 32.9886 19.9182C32.9162 19.4912 32.689 19.1543 32.2431 19.5241C31.4025 20.2211 31.0135 21.4656 30.8158 22.478C30.5473 23.853 30.5252 24.9992 30.6418 26.4012C30.7538 27.7467 30.9762 29.6132 31.8809 30.729C33.6348 32.8924 35.6774 25.7287 35.8147 25.1266C36.1238 23.771 36.2655 22.3119 36.2905 20.923C36.3178 19.3999 36.2939 17.6835 35.8609 16.2045C35.4872 14.9283 34.4259 14.6895 33.3082 15.2246C31.4818 16.0991 31.133 18.2184 31.1779 20.0638C31.2228 21.9055 31.6708 23.7276 32.4419 25.3964C32.6589 25.866 33.8174 28.5564 34.7851 26.9657C35.3096 26.1035 35.5691 24.1526 35.6088 23.2449C35.6624 22.0197 35.5438 20.5623 34.8419 19.5028C34.5801 19.1076 34.0948 18.7277 33.5922 18.7146C32.5378 18.6873 32.1822 19.8933 31.9874 20.6851C31.4229 22.9799 31.248 25.6574 31.114 27.9669C31.0361 29.3098 30.9882 30.6549 30.9791 32.0001C30.974 32.7616 30.9894 33.5258 31.0714 34.2829C31.0944 34.4947 31.0968 34.7966 31.2916 34.883C31.5539 34.9994 32.0312 33.3156 32.0407 33.2604C32.2185 32.2244 32.1305 31.0898 31.8667 30.0758C31.7575 29.6559 31.4813 28.9119 31.1282 28.5846C30.4728 27.977 29.5232 28.2674 28.8596 28.6592C27.3453 29.5533 26.3345 31.0835 25.4974 32.5823C24.647 34.1049 23.8674 35.8038 23.392 37.4889C23.2121 38.1266 23.1362 38.5328 23.1968 39.1682C23.2085 39.2913 23.3211 40.091 23.6441 39.6546C24.0908 39.0511 24.1143 38.0662 23.9423 37.3682C23.6355 36.123 23.0707 38.4015 23.9601 38.0321C24.6748 37.7353 24.9946 36.4756 25.1707 35.8274C25.3374 35.2143 25.7668 33.6964 25.1565 33.1646C24.8693 32.9143 24.3847 33.3816 24.237 33.5658C23.6765 34.2647 22.538 36.1536 23.6974 36.7859C24.0037 36.9531 24.6338 37.0024 24.34 36.4735C23.8656 35.6197 22.3834 35.1435 21.4713 35.2238C20.5221 35.3073 19.4679 35.8982 19.2168 36.8783C19.0285 37.6133 19.4635 38.7112 20.0227 39.2073C20.3015 39.4546 20.7189 39.5467 21.0807 39.5836C21.108 39.5864 21.6132 39.6473 21.5849 39.5339C21.5525 39.4043 20.9609 39.4738 20.8961 39.4771C20.4777 39.4986 19.9827 39.5296 19.6748 39.8499C19.4122 40.123 19.9989 40.2866 20.1861 40.3718C20.2288 40.3913 20.8975 40.7353 20.6618 40.4996C20.3621 40.1999 20.0369 39.9296 19.7032 39.6688C19.4751 39.4907 19.1851 39.1557 18.8902 39.0901C18.4295 38.9877 18.07 38.7209 17.6511 38.5114C17.4359 38.4038 17.1843 38.4603 16.9517 38.4156C16.6524 38.358 16.3693 38.128 16.0854 38.128C15.8546 38.128 15.9788 38.1449 16.0889 38.2061C16.1725 38.2525 16.2849 38.4796 16.3481 38.5505C16.4815 38.7 16.6645 38.8432 16.7848 38.9978C17.0675 39.3612 17.6157 39.635 18.0274 39.8783C18.5176 40.1679 19.0427 40.365 19.5328 40.6487C20.128 40.9933 20.7782 41.1076 21.379 41.444C21.7661 41.6608 22.0059 41.9624 21.3896 41.9624C20.7056 41.9624 19.9662 41.4522 19.3553 41.1671C19.2041 41.0965 19.2644 41.0242 19.0783 40.9896C18.9797 40.9712 18.3903 40.7528 18.3931 40.7517C18.8171 40.5821 19.6117 41.2948 19.9411 41.5079C20.3482 41.7713 20.7398 42.1073 21.1304 42.4097C22.1719 43.216 23.1716 43.4267 24.4713 42.8606C27.467 41.5558 29.7335 38.7377 30.3188 35.522C30.3957 35.0992 30.7961 33.6169 30.0241 33.5303C29.0204 33.4176 27.505 33.8919 26.914 34.7551C25.9893 36.1058 26.304 38.2841 26.598 39.7753C26.7757 40.677 27.0757 41.5251 27.6915 42.2215C28.0809 42.6619 28.6855 43.1869 29.3389 43.0772C30.4602 42.8889 30.6316 41.2259 30.688 40.3683C30.755 39.3492 30.7618 37.7902 29.9318 37.0203C29.3973 36.5245 28.3845 36.5578 27.7199 36.6581C26.8738 36.7859 26.4562 37.6965 26.2785 38.4546C26.1893 38.8349 26.1499 39.6382 26.5589 39.8961C27.3535 40.397 28.673 36.7411 28.8134 36.367C28.941 36.0271 29.8797 34.1432 29.0903 33.8889C28.3179 33.64 27.2613 34.1226 26.7329 34.6699C26.4076 35.0068 26.0716 35.6118 26.1791 36.1043C26.2988 36.653 27.0228 36.7732 27.482 36.7043C27.7465 36.6646 28.4704 36.2971 28.2312 36.4167C28.0878 36.4884 27.8558 36.8058 27.7803 36.8925C27.4344 37.2889 27.0967 37.6932 26.7897 38.1209C26.3584 38.7218 25.9563 39.3616 25.6252 40.0239C25.4888 40.2966 25.4566 40.5645 25.3518 40.8369C25.2802 41.0231 25.3405 41.1823 25.2276 41.3517C24.9422 41.7797 23.9912 41.8524 24.2974 41.1635C24.376 40.9866 24.5417 40.8253 24.6453 40.6629C25.5352 39.2685 26.4564 37.8956 27.23 36.4309C28.8757 33.3147 30.3047 30.0766 31.6111 26.8059C32.442 24.7257 33.207 22.6202 34.0182 20.5324C34.4843 19.333 34.9908 18.1475 35.3319 16.904C35.4999 16.2915 35.5993 15.8179 35.6656 15.1998C35.6953 14.9236 35.7789 14.4056 35.4952 14.1915C34.8393 13.6965 33.9117 14.4494 33.4928 14.8945C33.1163 15.2945 32.7247 15.817 32.5306 16.3395C32.3692 16.7742 33.3564 16.1179 33.365 16.1122C33.8609 15.7847 34.439 15.4108 34.8348 14.9584C34.9273 14.8527 34.8579 14.8469 34.7638 14.9158C34.4273 15.162 34.1292 15.4853 33.8407 15.782C33.609 16.0205 33.2184 16.4411 32.9886 16.6909C32.8253 16.8685 32.2905 17.201 32.5271 17.2483C32.5577 17.2545 32.5878 17.2287 32.6123 17.2093C32.802 17.0593 33.0506 16.7757 33.1875 16.6128C33.7007 16.0018 34.1779 15.3562 34.604 14.6814C34.9158 14.1878 35.5753 13.2979 35.3248 12.6577C35.1744 12.2734 34.7663 12.1224 34.3875 12.1181C34.2095 12.1161 34.0689 12.1587 33.9295 12.2672C33.5986 12.5245 34.4378 11.6005 34.6857 11.2624C34.7064 11.2343 34.9793 10.9311 34.9271 10.9678C34.2898 11.4163 33.8071 12.1016 33.294 12.679C33.0881 12.9107 32.3397 13.507 32.2963 13.8755C32.2631 14.1575 32.6765 14.6222 32.7969 14.8448C33.6699 16.4579 33.5638 18.3452 33.5638 20.1277C33.5638 21.178 33.6483 22.2625 33.4999 23.3017" stroke="white" stroke-width="3" stroke-linecap="round"/>
<path d="M33.1162 12.3097C31.8127 12.3253 30.5078 12.4791 29.2143 12.6293C28.1048 12.7581 27.1037 13.1382 26.0226 13.3748C25.1635 13.5629 24.2333 13.6509 23.4095 13.9713C23.2631 14.0282 23.1281 14.0762 22.9764 14.1133C22.8474 14.1448 22.5749 14.3912 22.6071 14.2624C22.6584 14.0571 23.2277 13.8159 23.374 13.737C23.9859 13.407 24.6236 13.0583 25.2841 12.8352C25.4248 12.7877 26.1701 12.4675 26.303 12.7038C26.3727 12.8276 26.3421 13.0291 26.3421 13.1618C26.3421 13.8962 26.4303 14.6298 26.5338 15.3559C26.6698 16.3101 26.8163 17.7407 27.5847 18.4377C28.2308 19.0236 29.4071 18.7629 30.0984 18.4448C31.2759 17.9028 32.3121 17.0738 33.3008 16.2506C35.2751 14.6068 37.2999 13.036 39.3861 11.5358C39.9623 11.1214 40.2815 11.0604 40.1317 10.2789C39.8396 8.75589 38.3629 8.24052 36.9861 8.28719C36.2508 8.31211 35.5733 8.35522 34.8345 8.29784C34.6694 8.28502 34.3359 8.21715 34.1777 8.31204C33.8927 8.48305 34.7725 8.01516 35.0689 7.8647C35.6552 7.56704 36.2116 7.20357 36.8227 6.95581C37.1344 6.82944 37.3696 6.56995 37.6819 6.46586C38.2662 6.2711 38.7765 5.86938 39.4287 5.8552C39.7292 5.84866 39.9789 5.83883 40.2666 5.73093C40.7462 5.55108 41.371 5.66348 41.8713 5.66348C42.5855 5.66348 43.2019 5.51721 43.8986 5.4398C44.3922 5.38496 44.8937 5.40785 45.3897 5.40785C45.8779 5.40785 46.3105 5.59957 46.7921 5.59957C47.2865 5.59957 47.7767 5.69945 48.262 5.77709C50.0201 6.05838 44.625 5.69985 42.9719 5.03861C42.6177 4.89693 42.2599 4.8872 41.9068 4.71908C41.821 4.67821 41.5901 4.62266 41.8181 4.57707C42.7229 4.3961 43.6059 4.39833 44.5235 4.3818C45.1036 4.37135 45.6788 4.22673 46.2525 4.30724C46.5707 4.35191 46.8823 4.40213 47.2004 4.44926C47.4836 4.49121 47.9269 4.7111 48.0845 4.96051C48.1938 5.13363 48.441 5.21211 48.6206 5.28004C48.994 5.42135 49.2626 5.57225 49.604 5.77709C49.8858 5.94615 50.1804 5.96245 50.4667 6.14278C50.741 6.31547 50.9311 6.57192 51.1733 6.78184C51.8956 7.40785 52.7955 7.98637 53.3106 8.81619C53.428 9.00539 53.6556 9.11054 53.765 9.28839C53.9999 9.67007 54.34 9.97373 54.6491 10.2931C55.0848 10.7434 55.6052 11.0851 55.9307 11.6458C56.283 12.2526 56.4734 13.0979 56.5556 13.7867C56.6929 14.9368 56.7652 16.0873 56.9461 17.2376C57.0507 17.9021 57.0115 18.5524 56.9674 19.2187C56.9375 19.6721 56.9922 20.0973 57.0136 20.5466C57.0281 20.8518 56.9532 21.1466 56.9532 21.4519C56.9532 22.0453 57.0742 22.8002 56.8858 23.3655C56.7558 23.7556 56.642 24.1691 56.5343 24.5656C56.4536 24.8627 56.3234 25.0586 56.1651 25.3182C56.0167 25.5616 55.955 25.8559 55.8313 26.1135C55.4792 26.8471 55.0749 27.4961 54.6171 28.1621C53.9829 29.0846 53.4274 30.0339 52.9271 31.0343C52.6993 31.4901 52.4377 31.9251 52.2171 32.3834C51.8798 33.0839 51.2195 33.6498 50.6833 34.2012C50.4383 34.4533 50.2168 34.7242 50.023 35.0178C49.8164 35.3307 49.6904 35.7651 49.4371 36.0403C49.3652 36.1186 49.2053 36.2512 49.107 36.2959C49.0871 36.305 49.0918 36.2538 49.0928 36.232C49.1119 35.7977 49.1855 35.3525 49.249 34.9255C49.9482 30.2253 51.5524 25.7608 53.0905 21.285C53.3685 20.476 53.6545 19.6645 53.8928 18.8424C54.0248 18.3872 53.8007 18.8794 53.7508 18.9986C52.7005 21.5092 51.8651 24.1379 51.0668 26.7384C50.8746 27.3643 50.7503 28.0276 50.5342 28.6449C50.3993 29.0304 50.789 27.868 50.946 27.4911C51.8827 25.243 53.1825 23.2187 54.4076 21.1288C54.4984 20.974 54.4593 21.1397 54.4467 21.2389C54.3281 22.1729 54.1549 23.1021 54.0136 24.033C53.8786 24.9216 53.7201 25.8002 53.481 26.6674C53.3971 26.9718 53.3277 27.3761 53.1437 27.6473C53.0334 27.8098 52.872 27.939 52.7674 28.1017C52.5905 28.3769 52.346 28.8419 52.0964 29.039C52.0047 29.1114 51.8741 29.6104 51.791 29.6C51.755 29.5955 52.8357 26.8612 52.8881 26.7419C53.4596 25.4405 54.0827 24.1919 54.5816 22.8614C54.8201 22.2255 54.8981 21.5931 55.1994 20.9655C55.3285 20.6965 55.2633 20.3802 55.1568 20.1063C54.9308 19.5254 54.7436 18.9886 54.6526 18.3666C54.5735 17.826 54.599 17.2357 54.4112 16.7193C54.2638 16.3138 54.4099 15.6891 54.3934 15.2601C54.3779 14.8563 54.213 14.4709 54.2053 14.0707C54.2012 13.8613 54.2161 13.709 54.1378 13.5133C54.0623 13.3244 54.0587 12.7421 53.9177 12.6293C53.6431 12.4096 53.3428 11.9717 53.1544 11.6742C52.6142 10.8213 51.8237 10.2183 51.2159 9.43395C50.9474 9.08756 50.7013 8.41155 50.3034 8.18778C49.714 7.85622 48.9274 7.45286 48.2478 7.45286C47.8642 7.45286 47.528 7.35495 47.1543 7.28954C46.5358 7.18131 45.9121 7.19723 45.2868 7.19723C44.8554 7.19723 44.4261 7.25404 43.998 7.25404C43.0687 7.25404 42.1214 7.09132 41.1968 7.26469C40.739 7.35052 40.2655 7.56158 39.8902 7.83629C39.5604 8.07782 39.4498 8.51318 39.1553 8.79489C38.7435 9.18878 38.432 9.73757 38.1151 10.2008C37.9925 10.38 37.7226 10.572 37.5612 10.7334C37.4555 10.8391 37.712 10.3594 37.8097 10.2789C38.8741 9.40318 40.3469 8.9654 41.5731 8.36885C42.0153 8.15373 42.5329 7.99109 43.0288 8.05997C43.4979 8.12513 43.9452 8.10817 44.4063 8.24814C45.1162 8.46365 45.8315 8.67198 46.5507 8.8588C47.4104 9.08209 48.1894 9.48264 48.9756 9.8884C49.6693 10.2464 50.3866 10.671 50.9425 11.2269C51.6809 11.9652 51.752 12.9027 52.2242 13.7796C52.4184 14.1403 52.5634 14.6305 52.6431 15.0293C52.7753 15.6905 53.0169 16.3166 52.9768 17.0033C52.8865 18.5509 52.1376 19.981 51.6774 21.4342C51.4766 22.0684 51.5851 20.8404 51.5851 20.7383C51.5851 19.8578 51.5851 18.9773 51.5851 18.0968C51.5851 17.7197 51.5902 17.3934 51.4928 17.0317C51.3496 16.4999 51.4786 15.912 51.3508 15.363C51.1204 14.3736 50.8462 13.7305 50.1153 13.0553C49.4929 12.4805 48.7713 12.071 48.0667 11.6103C47.3169 11.12 46.4082 10.9516 45.6241 10.5239C45.2125 10.2994 44.8434 10.1663 44.3779 10.0872C43.8157 9.99175 43.3839 10.2693 42.8796 10.4565C41.9355 10.8069 41.3325 11.525 40.721 12.3097C40.4092 12.7099 40.0654 13.0664 39.8583 13.5346C39.7079 13.8747 39.6336 14.239 39.4926 14.582C39.3953 14.8185 39.2435 15.031 39.1624 15.2743C38.9279 15.9777 38.7597 16.7089 38.5411 17.4116C38.1829 18.563 38.2282 19.8001 37.8594 20.9513C37.8211 21.071 37.7491 21.9057 37.6855 21.6259C37.5097 20.8524 37.6073 20.0044 37.6535 19.2258C37.7627 17.3883 37.8283 15.4687 38.1683 13.6553C38.2197 13.3814 38.3284 12.9414 38.534 12.7358C38.5489 12.7209 38.4023 13.0521 38.5269 12.9204C39.5587 11.8296 41.678 11.868 43.0359 11.7701C44.4076 11.6712 46.0438 11.4024 47.3815 11.8695C48.0552 12.1048 48.7657 12.5025 49.3839 12.8565C49.9261 13.167 50.2066 13.4963 50.4987 14.0388C50.996 14.9624 50.9526 16.0898 50.9958 17.1098C51.0469 18.3197 51.0826 19.5398 51.1875 20.7454C51.3187 22.2542 50.8956 23.9821 50.4845 25.4319C49.9989 27.1444 49.0752 28.602 48.2513 30.1467C48.0381 30.5466 47.9165 31.1282 47.6371 31.4746C47.5752 31.5513 47.559 31.5622 47.559 31.6734C47.559 32.2556 47.6158 32.8372 47.6158 33.4202C47.6158 34.5971 47.4718 35.7804 47.1756 36.9208C47.14 37.0577 47.0716 37.3166 46.9839 37.4249C46.8291 37.6161 46.8442 37.8844 46.7495 38.0995C46.5991 38.4415 46.1161 38.7859 45.8442 39.0084C45.4148 39.3597 44.976 39.6985 44.5483 40.0522C44.0566 40.4588 43.7732 40.8881 43.3838 41.3942C43.1775 41.6624 42.9315 41.8811 42.6702 42.0901C42.5176 42.2122 42.3413 42.6153 42.2264 42.786C41.9766 43.157 41.8317 43.4503 41.6725 43.8653C41.5114 44.2853 41.254 45.2253 40.7565 45.4062C40.6293 45.4524 40.5368 45.0062 40.5151 44.9375C39.9928 43.2816 39.8623 41.6756 39.8228 39.9564C39.8168 39.6958 39.7304 37.7964 39.5565 37.8084C39.0531 37.8431 38.5566 38.4349 38.1541 38.6853C38.082 38.7302 37.7152 38.9787 37.7174 38.9587C37.7649 38.5316 37.9592 38.0671 38.0938 37.6735C38.5952 36.206 39.0666 34.6394 39.8583 33.2959C39.9647 33.1153 40.2326 32.6181 40.2737 32.8237C40.4344 33.6271 40.8221 34.431 41.1116 35.1918C41.7335 36.8262 42.4536 38.4153 42.9933 40.0806C43.1306 40.5044 43.0935 40.982 42.9151 41.3942C42.5301 42.2841 41.3701 42.1286 40.6358 41.8913C39.7704 41.6116 39.0215 41.1442 38.4772 40.4072C38.0652 39.8495 37.9189 39.1618 37.6358 38.5398C37.4158 38.0565 37.1546 37.573 36.8547 37.1338C36.7215 36.9388 36.7555 37.1786 36.7446 37.2829C36.6899 37.8055 36.6413 38.2523 36.6914 38.7776C36.6968 38.8349 36.6915 38.8987 36.773 38.8806C36.8866 38.8554 36.9547 38.7764 37.0429 38.696C37.6774 38.1169 38.2631 37.4425 38.7683 36.7504C41.4085 33.1336 42.5195 28.6326 44.0655 24.4946C44.2672 23.9544 44.52 23.427 44.6903 22.8756C44.7147 22.7966 44.7698 22.5547 44.7471 22.6342C44.5571 23.2993 44.408 23.9907 44.2359 24.6579C43.514 27.4568 42.8221 30.257 42.2441 33.09C42.0151 34.2123 41.8324 35.1722 41.6406 36.2782C41.588 36.5815 41.474 37.0418 41.4879 37.3823C41.4986 37.6444 41.7777 36.9435 41.8926 36.7078C43.5003 33.4116 44.5522 29.8166 45.8158 26.3833C46.4083 24.7736 46.9979 23.1721 47.6513 21.5868C47.8854 21.0189 48.2025 20.1169 48.6099 19.5809C48.7435 19.405 48.4632 19.9975 48.3898 20.2057C47.5487 22.5917 46.8399 25.0212 46.1176 27.4449C45.4518 29.679 44.75 31.9053 44.0903 34.1409C43.8265 35.0348 44.9138 32.4685 45.3223 31.6308C45.7755 30.7013 46.2742 29.7938 46.7211 28.8615C46.9042 28.4796 46.7052 29.0137 46.6785 29.0958C46.2875 30.2996 45.8867 31.498 45.5211 32.7101C45.1263 34.0188 44.7443 35.3303 44.1507 36.5658C44.1028 36.6653 43.6166 37.4532 43.9021 36.9492C44.0688 36.655 44.2776 36.3961 44.5057 36.1468C44.8195 35.8039 44.7278 36.0709 44.669 36.3811C44.4792 37.3832 44.2756 38.3797 43.9305 39.3421C43.9131 39.3907 43.4483 40.4409 43.5223 40.2191C43.738 39.5717 44.031 38.9444 44.2856 38.3125C45.6183 35.0054 46.7544 31.6141 47.8501 28.2224C48.3195 26.7694 48.9061 25.2104 49.0147 23.6638C49.0359 23.3615 48.8006 23.6094 48.7022 23.7206C47.928 24.5958 47.3478 25.6832 46.7566 26.6816C46.0499 27.875 45.3726 29.0788 44.6229 30.2461C44.4902 30.4527 44.0847 31.0673 44.211 30.8568C45.0689 29.427 45.9143 28.0018 46.7211 26.5396C47.4496 25.2193 48.2373 23.9149 48.8939 22.5561C48.9962 22.3445 49.3807 21.8079 49.1673 21.9064C48.6608 22.1401 48.0935 22.6755 47.946 23.2164C47.9367 23.2505 47.8856 23.3515 47.8856 23.2413C47.8856 22.7289 48.093 22.197 48.2549 21.7253C48.7711 20.2213 49.2958 18.7253 49.7318 17.195C49.8422 16.8077 50.1946 16.0038 50.1117 15.5477C50.0807 15.3772 49.1302 15.9812 48.9934 16.0873C48.4951 16.4735 48.0606 16.8612 47.63 17.3157C47.5227 17.429 47.4992 17.5338 47.4596 17.685C47.3743 18.0105 47.1929 18.2159 46.9767 18.4661C46.6758 18.8143 46.3951 19.1425 46.1708 19.5383C45.9875 19.8617 45.7806 20.1378 45.6418 20.4898C45.5019 20.8444 45.3989 21.2259 45.2016 21.5549C45.0304 21.8401 44.8991 22.1457 44.7471 22.4425C44.5302 22.8659 44.4778 23.3308 44.2785 23.7703C43.6074 25.2497 42.3349 26.381 41.6335 27.8496C41.4127 28.3118 41.1757 28.6997 40.8346 29.0816C40.6688 29.2673 40.3529 29.522 40.2701 29.7704C40.1707 30.0688 40.0597 30.3577 39.9541 30.6509C39.8198 31.0241 39.8044 31.0646 39.379 31.0059C38.2274 30.8471 36.7394 30.7612 35.8357 29.9373C35.4798 29.6128 35.8525 28.8212 35.9138 28.4284C36.0016 27.8659 36.1599 27.3546 36.347 26.82C36.4258 26.5948 36.6205 26.3751 36.7269 26.1455C36.8625 25.8529 37.0908 25.5721 37.192 25.2685C37.3329 24.8457 37.4065 24.38 37.5186 23.9478C37.6478 23.4495 37.8422 22.9973 37.9873 22.5064C38.1128 22.0814 38.152 21.65 38.2926 21.2282C38.4265 20.8264 38.5963 20.4663 38.779 20.085C38.9428 19.743 39.0247 19.3432 39.237 19.027C39.3809 18.8127 39.5921 18.6747 39.7234 18.4412C39.8736 18.1741 39.9297 17.963 40.1601 17.7773C40.5366 17.4736 40.8266 16.8877 41.0122 16.4424C41.2006 15.9901 41.282 15.363 41.6299 15.0151C41.9047 14.7404 42.1299 14.3878 42.5317 14.3476C42.9948 14.3013 43.4453 14.1542 43.9092 14.1027C44.3588 14.0527 44.8146 13.8435 45.269 13.8435C45.5516 13.8435 45.8517 13.8816 46.1318 13.9216C46.321 13.9486 46.8984 13.9995 47.0478 14.1275C47.497 14.5126 47.2164 14.84 46.9199 15.2352C46.642 15.6058 46.1798 15.8493 45.9258 16.2187C45.7127 16.5286 45.3672 16.744 45.1909 17.0672C44.6187 18.1162 44.1458 19.2144 43.5826 20.2696C43.2326 20.9255 42.8485 21.5481 42.5637 22.2365C42.3257 22.8116 42.1056 23.3928 41.8713 23.9691C41.7107 24.3643 41.494 24.7223 41.3885 25.1372C41.2025 25.8689 40.9271 26.6793 40.6074 27.3632C40.4833 27.6289 40.357 27.8137 40.1778 28.0343C40.0512 28.1901 39.7078 28.9292 39.3932 28.7195C39.2026 28.5924 38.2435 28.475 38.2287 28.2224C38.197 27.6843 38.2995 27.2119 38.36 26.6567C38.4019 26.2726 38.5326 25.8493 38.6263 25.4745C38.7069 25.1523 38.855 24.8 38.9671 24.4839C39.1412 23.9935 39.4141 23.5411 39.5707 23.046C39.6798 22.7013 39.8854 22.4074 40.0429 22.0839C40.2487 21.6612 40.3103 21.2356 40.4299 20.788C40.735 19.6462 41.0852 18.3768 41.6157 17.3157C41.7426 17.062 42.0121 16.9029 42.198 16.698C42.4059 16.4688 42.8707 15.6329 43.2134 15.6329" stroke="white" stroke-width="3" stroke-linecap="round"/>
<path d="M8.25705 20.4897C8.33535 19.0803 8.73895 17.6568 9.00973 16.2825C9.47461 13.9231 9.95486 11.5363 10.16 9.13562C10.1635 9.09542 10.2083 8.83195 10.1174 9.01846C9.84289 9.58201 9.57356 10.1592 9.33991 10.7404C8.787 12.1157 8.51813 13.5447 8.16119 14.9724C8.08515 15.2766 8.07143 15.0562 8.05113 14.9014C7.94092 14.061 8.12639 13.1822 7.97303 12.3522C7.86913 11.79 7.51055 12.7851 7.45467 12.9025C6.96474 13.9327 6.7274 15.0855 6.53868 16.2044C6.53831 16.2066 6.45785 16.9674 6.46768 16.6482C6.4927 15.8348 6.82357 15.0749 7.02863 14.2978C7.13623 13.8901 7.20388 13.4857 7.26295 13.0694C7.28094 12.9427 7.36064 12.5833 7.28426 12.686C6.68091 13.4974 6.25585 14.6151 5.91382 15.5547C5.89461 15.6074 5.56451 16.5964 5.70435 16.4174C6.42564 15.4941 7.254 14.7748 8.24995 14.1594C8.30883 14.123 8.68932 13.8267 8.81801 13.9286C9.05367 14.1152 8.79141 14.9326 8.7541 15.1215C8.55338 16.1379 8.39415 17.2633 8.02273 18.2316C7.79646 18.8216 7.69086 18.2275 7.61799 17.905C7.41706 17.0158 7.10767 14.7055 6.97893 13.9712" stroke="white" stroke-width="3" stroke-linecap="round"/>
<path d="M15.9257 5.34393C14.6613 5.2673 13.5451 4.4374 12.2262 4.67291C11.9987 4.71353 11.9828 4.89817 11.7931 4.9889C11.4622 5.14713 11.3758 5.3006 11.1469 5.55695C10.8256 5.91679 10.7415 6.44464 10.4688 6.83863C10.4097 6.92391 10.4283 7.03035 10.3658 7.11911C10.2369 7.30235 9.98311 7.38054 9.86876 7.58066C9.60956 8.03426 9.21478 8.46904 8.86401 8.85878C8.74554 8.99042 8.61067 9.11206 8.47702 9.22802C8.28731 9.39262 7.90035 9.52343 7.75985 9.71797C7.69719 9.80472 7.33063 10.1356 7.35866 10.0375C7.47485 9.63081 6.68761 10.5652 6.42491 10.8967C6.15461 11.2378 5.89947 11.7101 5.7326 12.118C5.58381 12.4817 5.18939 12.8868 5.18939 13.2825C5.18939 13.6193 5.11257 13.941 5.06513 14.2731C5.03999 14.4491 4.93377 14.5893 4.93377 14.7559C4.93377 15.2153 4.95059 15.6785 4.91956 16.137C4.8962 16.4823 4.70654 16.8745 4.70654 17.2021C4.70654 17.2139 4.85323 17.3522 4.86986 17.4187C4.8848 17.4785 4.91806 17.6397 4.96572 17.6779C5.08944 17.7768 5.18299 18.0354 5.18939 18.1891C5.22093 18.946 5.36799 19.6828 5.48052 20.4223C5.53254 20.7641 6.00904 21.6644 5.76455 21.4199C5.68238 21.3378 5.7231 21.2859 5.60833 21.2531C5.55161 21.2369 5.62907 22.1344 5.63674 22.2436C5.67828 22.8357 5.74475 23.3164 5.94207 23.8768C6.43106 25.2655 5.61358 23.3424 6.2616 23.9904C6.7381 24.4669 7.24536 24.9174 7.72434 25.3963C8.60897 26.281 9.40966 27.4478 10.5788 27.9881C11.0198 28.1919 11.5241 28.2976 11.9741 28.0804C12.3675 27.8905 12.6147 27.6424 12.8475 27.2709C13.5814 26.1001 14.1894 24.8169 14.6475 23.5146C15.3689 21.464 15.4495 19.2823 15.3221 17.1311C15.2256 15.5024 15.0608 13.8735 14.8748 12.2529C14.749 11.1577 14.7197 9.87946 14.328 8.83038C14.2473 8.61416 14.0082 8.4108 13.8452 8.66706C13.4865 9.23063 13.412 10.191 13.2664 10.8079C12.9032 12.3475 12.6123 13.8833 12.3789 15.4482C12.201 16.6411 12.0257 17.8353 11.8925 19.0341C11.8433 19.4765 11.8261 19.9091 11.6865 20.3335C11.5613 20.7143 11.5653 20.3041 11.4664 20.1063C11.2076 19.5886 10.7671 19.1585 10.4404 18.6826C10.2867 18.4589 10.1368 18.1993 9.90071 18.0507C9.82836 18.0051 9.75579 18.0027 9.69834 17.937C9.63215 17.8614 9.66336 18.2154 9.66284 18.253C9.64627 19.4461 9.4786 20.6344 9.47112 21.8318C9.46787 22.3513 9.47112 22.8709 9.47112 23.3904C9.47112 23.6561 9.3422 22.8733 9.31135 22.6093C9.17978 21.4836 9.02421 20.3493 8.75395 19.2471C8.62957 18.7399 8.29667 18.2446 8.2569 17.7276C8.25244 17.6697 8.0398 17.4463 8.00482 17.4755C7.81774 17.6314 7.9354 18.4228 7.94092 18.6187C7.95777 19.2169 8.03263 19.8123 8.11488 20.4045C8.13055 20.5173 8.19008 20.6234 8.2569 20.4897" stroke="white" stroke-width="3" stroke-linecap="round"/>
<path d="M15.9258 5.28003V5.34394" stroke="white" stroke-width="3" stroke-linecap="round"/>
<path d="M31.7746 17.8057C31.7292 18.1234 31.6049 18.4271 31.5544 18.7465C31.3435 20.0826 31.3583 21.4875 31.4018 22.8365C31.4278 23.6447 31.5429 24.4195 31.7604 25.1975C31.8143 25.3905 31.905 25.8368 32.1083 25.9573C32.3257 26.0862 32.2681 25.3585 32.2681 25.3573C32.1932 24.0846 31.6265 22.8074 31.0219 21.704C30.6414 21.0095 29.7585 19.5306 28.8491 20.44C28.4331 20.856 28.3692 21.6947 28.3165 22.2365C28.2068 23.3642 28.338 24.5798 28.5295 25.6946C28.5298 25.6962 28.6541 26.2863 28.7497 26.1703C29.2573 25.5539 29.1589 24.2609 29.1899 23.536C29.2368 22.44 29.1898 21.3425 29.126 20.2483C29.1075 19.9315 29.1555 19.5097 28.842 19.3181C28.5679 19.1506 28.6503 19.9413 28.6503 20.2625C28.6503 22.0496 28.8999 23.7992 29.4988 25.4886C29.6155 25.8179 29.8921 26.8258 30.2408 27.0437C30.3755 27.1279 30.3173 26.7298 30.3047 26.5715C30.2453 25.8252 29.9733 25.1043 29.7154 24.4093C28.8574 22.0977 27.9084 19.7909 26.8325 17.5714C26.8319 17.5701 26.3872 16.669 26.3425 16.7335C26.2982 16.7975 26.2804 17.0327 26.2786 17.053C26.2239 17.671 26.219 18.2974 26.2289 18.9169C26.2584 20.7574 26.3697 22.6315 26.8147 24.4235C26.8946 24.7451 27.1532 25.9615 27.1698 24.8922C27.1989 23.0137 26.9676 21.1879 26.6727 19.3359C26.4903 18.1905 26.4184 16.972 26.0869 15.853C25.9437 15.3696 26.2732 14.8973 26.52 14.4967C26.9965 13.7234 27.2569 12.7977 27.8798 12.1358C28.9152 11.0356 27.524 9.7012 26.6621 9.0363C26.2322 8.70473 25.9313 8.23037 25.5969 7.82918C25.2403 7.4012 24.5994 6.91076 24.0916 6.73567C23.7645 6.62287 23.5182 6.30702 23.2182 6.14631C22.9858 6.02181 22.8147 5.97482 22.5578 5.91554C21.8205 5.74538 21.2682 5.47175 20.4986 5.47175C19.7008 5.47175 18.9597 5.21296 18.159 5.15577C17.4256 5.10338 16.6446 5.13626 15.9258 5.28003" stroke="white" stroke-width="3" stroke-linecap="round"/>
<path d="M43.7409 0C40.8623 0 38.1109 0.659911 35.5635 1.96153C33.8295 2.84739 32.2365 4.02439 30.8697 5.42084C29.5027 4.02439 27.9099 2.84739 26.1758 1.96153C23.6283 0.659911 20.8771 0 17.9984 0C8.0741 0 0 8.07411 0 17.9985C0 25.0277 3.71238 32.4934 11.0339 40.1882C17.147 46.6131 24.6313 51.9687 29.8333 55.3303L30.8697 56L31.906 55.3303C37.108 51.9689 44.5923 46.6131 50.7056 40.1882C58.0271 32.4934 61.7393 25.0277 61.7393 17.9985C61.7393 8.07411 53.6652 0 43.7409 0ZM47.9389 37.5557C42.4755 43.2976 35.8207 48.179 30.8697 51.4459C25.9187 48.1788 19.2638 43.2976 13.8006 37.5557C7.17717 30.5948 3.81893 24.0148 3.81893 17.9985C3.81893 10.1799 10.1799 3.81893 17.9985 3.81893C22.4999 3.81893 26.6349 5.88662 29.343 9.49169L30.8697 11.524L32.3963 9.49169C35.1045 5.88662 39.2395 3.81893 43.7409 3.81893C51.5595 3.81893 57.9204 10.1799 57.9204 17.9985C57.9204 24.0148 54.562 30.5948 47.9389 37.5557Z" fill="white"/>
</svg>
